<?xml version="1.0" encoding="UTF-8"?>
<!DOCTYPE svg PUBLIC "-//W3C//DTD SVG 1.1//EN" "http://www.w3.org/Graphics/SVG/1.1/DTD/svg11.dtd">
<!-- Creator: CorelDRAW X7 -->
<svg xmlns="http://www.w3.org/2000/svg" xml:space="preserve" width="200mm" height="133.714mm" version="1.1" style="shape-rendering:geometricPrecision; text-rendering:geometricPrecision; image-rendering:optimizeQuality; fill-rule:evenodd; clip-rule:evenodd"
viewBox="0 0 20000 13371"
 xmlns:xlink="http://www.w3.org/1999/xlink">
 <defs>
  <style type="text/css">
   <![CDATA[
    .fil3 {fill:#2B2A29}
    .fil1 {fill:#AD033B}
    .fil2 {fill:#E6B012}
    .fil0 {fill:#FEFEFE}
   ]]>
  </style>
 </defs>
 <g id="Capa_x0020_1">
  <metadata id="CorelCorpID_0Corel-Layer"/>
  <g id="_1105139024">
   <rect class="fil0" width="20000" height="13371"/>
   <path class="fil1" d="M16197 5063c0,256 -53,478 -154,666 -101,189 -242,335 -425,439 -183,107 -397,157 -644,160 -245,-3 -461,-53 -644,-160 -183,-104 -324,-250 -425,-439 -101,-188 -152,-410 -154,-666 5,-389 118,-695 334,-920 220,-225 515,-340 889,-346 371,6 667,121 886,346 219,225 332,531 337,920zm-551 0c0,-254 -59,-453 -177,-602 -115,-149 -281,-228 -495,-231 -214,3 -380,82 -498,231 -115,149 -174,348 -174,602 0,253 59,452 174,601 118,150 284,228 498,231 214,-3 380,-81 495,-231 118,-149 177,-348 177,-601zm-2191 8c-3,248 -59,467 -169,655 -109,189 -267,335 -466,442 -200,104 -439,157 -712,160 -149,0 -290,-11 -416,-31 -130,-22 -256,-48 -377,-78l0 -2335c129,-22 256,-42 377,-59 124,-14 264,-22 422,-25 419,3 748,112 981,329 236,216 355,531 360,942zm-551 3c-3,-279 -79,-490 -231,-639 -152,-151 -371,-225 -655,-227l-180 0 0 1673c84,17 174,28 270,34 169,-3 312,-40 430,-116 118,-73 208,-171 270,-298 62,-126 96,-267 96,-427zm-4298 -11c-2,256 -53,478 -154,666 -102,189 -242,335 -425,439 -183,107 -399,157 -644,160 -248,-3 -461,-53 -644,-160 -183,-104 -324,-250 -425,-439 -101,-188 -152,-410 -155,-666 6,-389 116,-695 335,-920 220,-225 515,-340 889,-346 371,6 667,121 886,346 219,225 332,531 337,920zm-551 0c0,-254 -59,-453 -177,-602 -115,-149 -281,-228 -495,-231 -217,3 -380,82 -498,231 -115,149 -174,348 -174,602 0,253 59,452 174,601 118,152 281,228 498,231 214,-3 380,-79 495,-231 118,-149 177,-348 177,-601zm-2258 1265l-262 0 -1271 -1592 0 1592 -467 0 0 -2174 -256 -357 664 0 1122 1448 0 -1448 470 0 0 2531z"/>
   <path class="fil2" d="M11011 3549c-8,585 -391,954 -855,1255 295,-256 686,-585 692,-1018 -70,433 -450,723 -776,959 281,-259 666,-611 658,-1035 -85,453 -394,714 -743,981 290,-275 628,-610 611,-1046 -12,422 -383,759 -678,1004 292,-292 593,-619 565,-1063 -3,-208 -62,-377 -171,-501 -113,-126 -256,-188 -431,-191 -208,3 -365,70 -475,197 -110,129 -163,298 -163,509 0,121 20,239 59,349 39,109 110,216 214,320l1142 1125c129,127 233,270 312,431 76,160 118,334 123,520 6,369 -95,672 -300,917 -209,245 -515,371 -923,383 -228,0 -433,-48 -616,-141 -183,-90 -329,-228 -441,-411 -110,-183 -169,-410 -175,-683 -5,-594 374,-987 847,-1294 -315,273 -636,624 -642,1069 43,-442 391,-765 729,-1010 -307,281 -619,644 -610,1089 28,-442 365,-777 694,-1033 -301,287 -604,656 -588,1100 15,-444 341,-790 661,-1057 -286,286 -596,669 -562,1102 8,248 73,450 202,602 130,152 313,231 546,233 183,0 338,-62 461,-188 124,-127 186,-315 186,-579 -9,-161 -51,-310 -129,-448 -79,-137 -161,-253 -245,-334l-1027 -1010c-129,-127 -233,-273 -312,-439 -76,-166 -118,-354 -124,-562 0,-352 102,-633 307,-844 205,-211 484,-321 835,-326 341,5 611,98 816,287 205,185 315,447 326,781z"/>
   <path class="fil3" d="M16338 9523l-118 0 -65 -154 -267 0 -65 154 -106 0 261 -585 -28 -70 115 0 273 655zm-214 -233l-98 -242 -104 242 202 0zm-430 143l-34 90 -334 0 0 -655 109 0 0 565 259 0zm-430 0l-34 90 -335 0 0 -655 110 0 0 565 259 0zm-549 90l-109 0 0 -655 109 0 0 655zm-188 -655l-267 652 -99 15 -239 -667 121 0 177 523 206 -523 101 0zm-636 565l-39 90 -383 0 0 -655 402 0 -28 87 -264 0 0 194 245 0 -28 85 -217 0 0 199 312 0zm-557 -132c0,73 -25,129 -76,174 -50,43 -115,65 -194,65 -36,0 -73,-3 -107,-11 -36,-9 -67,-17 -95,-28l-20 -144c28,23 62,43 96,57 33,16 76,22 118,25 42,-3 76,-14 104,-37 31,-22 45,-50 48,-90 -3,-25 -9,-45 -23,-62 -14,-16 -31,-30 -48,-45 -16,-11 -33,-19 -45,-25l-76 -48c-56,-33 -95,-67 -120,-104 -26,-36 -37,-76 -37,-115 3,-76 28,-135 79,-177 50,-42 118,-65 202,-68 37,3 73,9 107,20 34,11 59,22 76,34l0 132c-22,-23 -48,-42 -79,-59 -31,-14 -64,-23 -104,-23 -42,0 -79,9 -109,31 -31,23 -48,54 -48,96 0,34 14,62 39,81 23,23 54,43 87,62l76 48c23,14 45,28 68,48 22,20 42,42 56,70 17,26 25,57 25,93zm-846 132l-40 90 -382 0 0 -655 402 0 -28 87 -264 0 0 194 244 0 -28 85 -216 0 0 199 312 0zm-560 -236c-3,104 -34,186 -98,248 -65,61 -155,92 -273,95 -42,-3 -82,-5 -116,-11 -36,-6 -67,-14 -95,-23l0 -630c31,-5 62,-11 95,-14 31,-5 71,-5 119,-5 118,0 208,31 272,90 62,62 93,146 96,250zm-115 3c0,-82 -23,-144 -71,-191 -47,-45 -118,-71 -213,-71l-71 0 0 501c17,3 34,8 48,11 17,3 34,6 51,6 56,0 104,-11 140,-37 40,-22 68,-56 88,-93 19,-39 28,-81 28,-126zm-1544 -329l-34 90 -186 0 0 565 -109 0 0 -565 -180 0 0 -90 509 0zm-597 655l-56 0 -391 -461 0 461 -98 0 0 -582 -62 -73 140 0 369 439 0 -439 98 0 0 655zm-5287 0l-135 0 -73 -200 -307 0 -70 200 -118 0 292 -773 -31 -71 135 0 307 844zm-242 -295l-121 -332 -118 332 239 0zm3201 295l-119 0 -64 -155 -267 0 -68 155 -104 0 262 -585 -31 -70 118 0 273 655zm-214 -233l-99 -242 -107 242 206 0zm3816 -96c-2,104 -33,186 -92,248 -59,61 -138,92 -237,95 -98,-3 -177,-34 -236,-95 -59,-62 -90,-144 -90,-248 0,-65 14,-124 42,-177 28,-51 68,-90 116,-118 50,-31 106,-45 168,-45 65,0 121,14 172,45 48,28 87,67 115,118 28,53 42,112 42,177zm-118 0c0,-73 -17,-132 -53,-180 -40,-45 -90,-70 -158,-70 -64,0 -118,25 -154,70 -37,48 -57,107 -57,180 0,76 20,135 57,180 36,48 90,70 154,73 68,-3 121,-25 158,-73 36,-45 53,-104 53,-180zm-1831 239l-39 90 -383 0 0 -655 403 0 -28 87 -265 0 0 194 245 0 -28 84 -217 0 0 200 312 0zm-613 90l-109 0 0 -655 109 0 0 655zm-304 0l-112 0 0 -475 -222 340 -206 -340 0 475 -98 0 0 -599 -45 -56 157 0 220 343 219 -343 87 0 0 655zm-2590 -655l0 405c0,48 -8,93 -28,132 -20,39 -48,73 -87,96 -40,22 -87,36 -146,36 -90,0 -158,-22 -203,-67 -48,-45 -70,-110 -70,-194l0 -408 109 0 0 399c0,54 14,99 43,132 28,34 67,51 121,51 50,-3 92,-17 118,-51 28,-31 39,-70 39,-121l0 -410 104 0zm-605 0l-230 385 0 270 -110 0 0 -278 -214 -377 124 0 160 287 166 -287 104 0zm1927 0l-34 90 -185 0 0 565 -110 0 0 -565 -180 0 0 -90 509 0zm-596 655l-57 0 -390 -461 0 461 -99 0 0 -582 -62 -73 141 0 368 439 0 -439 99 0 0 655z"/>
  </g>
 </g>
</svg>
